<?xml version="1.0" encoding="iso-8859-1"?>
<!-- Generator: Adobe Illustrator 19.1.0, SVG Export Plug-In . SVG Version: 6.00 Build 0)  -->
<svg version="1.1" id="Layer_1" xmlns="http://www.w3.org/2000/svg" xmlns:xlink="http://www.w3.org/1999/xlink" x="0px" y="0px"
	width="32px" height="32px" viewBox="0 0 32 32" style="enable-background:new 0 0 32 32;" xml:space="preserve">
<g id="icon-s-sailfish">
	<rect id="icon-s-sailfish_1_" style="opacity:0;fill:#FFFFFF;" width="32" height="32"/>
	<g>
		<path style="fill:#FFFFFF;" d="M11.303,29.177l-0.697-1.328c0.037-0.019,3.658-1.965,3.658-4.868c0-1.675-1.184-3.101-2.438-4.611
			c-1.457-1.754-2.963-3.568-2.963-6.061c0-8.998,11.728-11.706,12.227-11.817l1.909-0.424L21.863,1.66
			c-0.023,0.033-2.325,3.294-2.386,6.538l-1.5-0.028c0.041-2.168,0.905-4.27,1.64-5.673c-3.132,1.096-9.254,3.983-9.254,9.812
			c0,1.951,1.271,3.482,2.617,5.103c1.369,1.648,2.784,3.354,2.784,5.569C15.763,26.795,11.485,29.081,11.303,29.177z"/>
		<path style="fill:#FFFFFF;" d="M17.498,15.497l-1.282-0.779c1.249-2.055,4.436-3.642,6.094-4.359
			c-1.239-0.445-2.156-1.261-2.638-1.766c-1.158,0.473-4.167,1.862-5.361,3.954l-1.303-0.744c1.768-3.095,6.439-4.738,6.637-4.807
			l0.843,0.256c0.017,0.021,1.814,2.326,4.273,1.854c1.224-0.234,2.425-0.573,3.399-0.884l2.244-0.801l0.537,1.4
			c-0.066,0.028-0.998,0.409-2.344,0.837l-4.75,1.695C23.804,11.37,18.909,13.173,17.498,15.497z"/>
		<path style="fill:#FFFFFF;" d="M2.248,31.526l-0.145-1.49c1.062-0.172,2.068-0.361,3.019-0.568
			c1.687-0.613,3.175-1.714,4.336-3.233c1.761-2.306,2.53-5.353,1.958-7.764l1.46-0.346c0.682,2.874-0.171,6.33-2.226,9.02
			c-0.273,0.357-0.563,0.695-0.866,1.013c5.216-1.89,7.771-4.642,7.771-8.326c0-1.817-1.109-2.95-2.393-4.262
			c-1.41-1.44-3.007-3.074-3.007-5.819c0-4.862,5.069-7.594,5.284-7.708l0.702,1.326c-0.045,0.024-4.486,2.431-4.486,6.382
			c0,2.133,1.253,3.414,2.58,4.77c1.387,1.417,2.82,2.882,2.82,5.312c0,7.307-8.333,10.017-13.664,11.134
			C4.395,31.3,3.34,31.49,2.248,31.526z"/>
	</g>
</g>
</svg>
